
<svg version="1.1" id="Layer_1" xmlns="http://www.w3.org/2000/svg" xmlns:xlink="http://www.w3.org/1999/xlink" x="0px" y="0px"
	 viewBox="0 0 512 512" style="enable-background:new 0 0 512 512;" xml:space="preserve">
<g>
	<g>
		<path d="M437.02,74.98C388.667,26.628,324.38,0,256,0S123.333,26.628,74.98,74.98C26.628,123.333,0,187.62,0,256
			s26.628,132.667,74.98,181.02C123.333,485.372,187.62,512,256,512s132.667-26.628,181.02-74.98
			C485.372,388.667,512,324.38,512,256S485.372,123.333,437.02,74.98z M256,491.602c-129.911,0-235.602-105.69-235.602-235.602
			S126.089,20.398,256,20.398S491.602,126.089,491.602,256S385.911,491.602,256,491.602z"/>
	</g>
</g>
<g>
	<g>
		<path d="M318.022,256l84.75-84.749c3.983-3.984,3.983-10.442,0-14.425l-47.599-47.599c-3.984-3.982-10.442-3.982-14.425,0
			L256,193.978l-84.749-84.75c-3.984-3.982-10.442-3.982-14.425,0l-47.599,47.599c-3.983,3.984-3.983,10.442,0,14.425L193.978,256
			l-84.75,84.749c-3.983,3.984-3.983,10.442,0,14.425l47.599,47.599c3.984,3.982,10.442,3.982,14.425,0L256,318.022l84.75,84.749
			c1.991,1.991,4.602,2.987,7.212,2.987s5.22-0.995,7.212-2.986l47.599-47.599c3.983-3.984,3.983-10.442,0-14.425L318.022,256z
			 M347.961,381.137l-84.749-84.75c-1.991-1.991-4.602-2.987-7.212-2.987s-5.221,0.996-7.213,2.987l-84.749,84.75l-33.175-33.175
			l84.75-84.749c3.983-3.984,3.983-10.442,0-14.425l-84.75-84.749l33.175-33.175l84.749,84.75c3.984,3.982,10.442,3.982,14.425,0
			l84.749-84.75l33.175,33.175l-84.75,84.749c-3.983,3.984-3.983,10.442,0,14.425l84.75,84.749L347.961,381.137z"/>
	</g>
</g>
<g>
	<g>
		<path d="M476.665,238.897c-0.433-5.617-5.331-9.834-10.953-9.385c-5.617,0.433-9.819,5.337-9.385,10.953
			c2.197,28.501-1.793,57.705-11.539,84.458c-1.928,5.292,0.8,11.146,6.092,13.074c1.152,0.42,2.331,0.619,3.49,0.619
			c4.164,0,8.076-2.571,9.584-6.711C474.688,302.439,479.084,270.278,476.665,238.897z"/>
	</g>
</g>
<g>
	<g>
		<path d="M469.409,197.204c-0.882-3.215-1.851-6.452-2.879-9.623c-1.737-5.36-7.491-8.296-12.847-6.558
			c-5.359,1.737-8.295,7.489-6.558,12.847c0.933,2.878,1.811,5.818,2.613,8.735c1.243,4.528,5.349,7.502,9.829,7.502
			c0.893,0,1.802-0.118,2.707-0.366C467.707,208.247,470.9,202.636,469.409,197.204z"/>
	</g>
</g>

</svg>
